<svg xmlns="http://www.w3.org/2000/svg" xmlns:xlink="http://www.w3.org/1999/xlink" viewBox="0 0 522 675" width="522" height="675" preserveAspectRatio="xMidYMid meet" style="width: 100%; height: 100%; transform: translate3d(0px, 0px, 0px); content-visibility: visible;"><defs><clipPath id="__lottie_element_87"><rect width="522" height="675" x="0" y="0"/></clipPath></defs><g clip-path="url(#__lottie_element_87)"><g style="display: block;" transform="matrix(1,0,0,1,0,0)" opacity="1"><g opacity="1" transform="matrix(1,0,0,1,261,337.5)"><path fill="rgb(238,249,241)" fill-opacity="1" d=" M-261,-317.5 C-261,-328.5450134277344 -252.04600524902344,-337.5 -241,-337.5 C-241,-337.5 241,-337.5 241,-337.5 C252.04600524902344,-337.5 261,-328.5459899902344 261,-317.5 C261,-317.5 261,317.5 261,317.5 C261,328.5459899902344 252.04600524902344,337.5 241,337.5 C241,337.5 -241,337.5 -241,337.5 C-252.04600524902344,337.5 -261,328.5459899902344 -261,317.5 C-261,317.5 -261,-317.5 -261,-317.5z"/></g><g opacity="1" transform="matrix(1,0,0,1,261,520.135986328125)"><path fill="rgb(232,230,247)" fill-opacity="1" d=" M-241,154.86399841308594 C-241,154.86399841308594 241,154.86399841308594 241,154.86399841308594 C252.04600524902344,154.86399841308594 261,145.91000366210938 261,134.86399841308594 C261,134.86399841308594 261,-154.86300659179688 261,-154.86300659179688 C261,-154.86300659179688 123.99199676513672,-154.86300659179688 123.99199676513672,-154.86300659179688 C122.69000244140625,-154.86300659179688 121.39099884033203,-154.8520050048828 120.08899688720703,-154.83999633789062 C38.106998443603516,-153.9040069580078 -40.40599822998047,-123.54499816894531 -99.21399688720703,-69.98500061035156 C-99.21399688720703,-69.98500061035156 -261,77.38200378417969 -261,77.38200378417969 C-261,77.38200378417969 -261,134.86399841308594 -261,134.86399841308594 C-261,145.91000366210938 -252.04600524902344,154.86399841308594 -241,154.86399841308594z"/></g><g opacity="1" transform="matrix(1,0,0,1,401.3869934082031,595.3779907226562)"><path fill="rgb(246,192,161)" fill-opacity="1" d=" M-22.010000228881836,30.714000701904297 C-22.368999481201172,33.512001037597656 -22.547000885009766,36.33000183105469 -22.542999267578125,39.1510009765625 C-22.542999267578125,44.3390007019043 -21.96299934387207,49.198001861572266 -20.909000396728516,53.37200164794922 C-18.81599998474121,62.020999908447266 -17.2810001373291,70.78800201416016 -16.285999298095703,79.62200164794922 C-16.285999298095703,79.62200164794922 24.099000930786133,79.62200164794922 24.099000930786133,79.62200164794922 C24.099000930786133,79.62200164794922 24.099000930786133,-79.62100219726562 24.099000930786133,-79.62100219726562 C24.099000930786133,-79.62100219726562 -24.099000930786133,-79.62100219726562 -24.099000930786133,-79.62100219726562 C-24.099000930786133,-79.62100219726562 -21.961000442504883,-38.28499984741211 -20.481000900268555,-9.152000427246094 C-19.792999267578125,4.15500020980835 -20.30500030517578,17.49799919128418 -22.010000228881836,30.714000701904297z"/></g><g opacity="1" transform="matrix(1,0,0,1,430.7569885253906,596.1510009765625)"><path fill="rgb(202,162,137)" fill-opacity="1" d=" M-26.851999282836914,78.8489990234375 C-26.851999282836914,78.8489990234375 16.976999282836914,78.8489990234375 16.976999282836914,78.8489990234375 C16.976999282836914,78.8489990234375 31.134000778198242,-73.79199981689453 31.134000778198242,-73.79199981689453 C31.134000778198242,-73.79199981689453 -26.14299964904785,-78.8489990234375 -26.14299964904785,-78.8489990234375 C-26.14299964904785,-78.8489990234375 -26.198999404907227,-37.49300003051758 -26.253000259399414,-8.302000045776367 C-26.270000457763672,5.031000137329102 -27.488000869750977,18.334999084472656 -29.89299964904785,31.450000762939453 C-30.393999099731445,34.207000732421875 -30.718000411987305,36.99399948120117 -30.861000061035156,39.79199981689453 C-31.134000778198242,44.98699951171875 -30.809999465942383,49.904998779296875 -29.974000930786133,54.16899871826172 C-28.450000762939453,62.33100128173828 -27.409000396728516,70.572998046875 -26.851999282836914,78.8489990234375z"/></g><g opacity="1" transform="matrix(1,0,0,1,443.489013671875,595.3779907226562)"><path fill="rgb(246,192,161)" fill-opacity="1" d=" M-31.886999130249023,30.714000701904297 C-32.244998931884766,33.51300048828125 -32.42300033569336,36.33000183105469 -32.41999816894531,39.1510009765625 C-32.41999816894531,44.3390007019043 -31.84000015258789,49.198001861572266 -30.78700065612793,53.37200164794922 C-28.69300079345703,62.020999908447266 -27.158000946044922,70.78800201416016 -26.163999557495117,79.62200164794922 C-26.163999557495117,79.62200164794922 17.361000061035156,79.62200164794922 17.361000061035156,79.62200164794922 C16.959999084472656,76.91600036621094 16.49799919128418,74.21700286865234 15.961000442504883,71.52899932861328 C12.5649995803833,54.595001220703125 12.430999755859375,37.167999267578125 15.565999984741211,20.18400001525879 C22.34000015258789,-16.53700065612793 33.97700119018555,-79.62100219726562 33.97700119018555,-79.62100219726562 C33.97700119018555,-79.62100219726562 -33.97700119018555,-79.62100219726562 -33.97700119018555,-79.62100219726562 C-33.97700119018555,-79.62100219726562 -31.834999084472656,-38.28499984741211 -30.356000900268555,-9.152000427246094 C-29.670000076293945,4.15500020980835 -30.183000564575195,17.49799919128418 -31.886999130249023,30.714000701904297z"/></g><g opacity="1" transform="matrix(1,0,0,1,353.531005859375,154.3280029296875)"><path fill="rgb(32,55,65)" fill-opacity="1" d=" M0,51.6879997253418 C27.349000930786133,51.6879997253418 49.518001556396484,28.54599952697754 49.518001556396484,0 C49.518001556396484,-28.547000885009766 27.349000930786133,-51.6879997253418 0,-51.6879997253418 C-27.347999572753906,-51.6879997253418 -49.518001556396484,-28.547000885009766 -49.518001556396484,0 C-49.518001556396484,28.54599952697754 -27.347999572753906,51.6879997253418 0,51.6879997253418z"/></g><g opacity="1" transform="matrix(1,0,0,1,387.7980041503906,104.61699676513672)"><path fill="rgb(32,55,65)" fill-opacity="1" d=" M0,24.617000579833984 C13.102999687194824,24.617000579833984 23.724000930786133,13.595999717712402 23.724000930786133,0 C23.724000930786133,-13.595999717712402 13.102999687194824,-24.617000579833984 0,-24.617000579833984 C-13.102999687194824,-24.617000579833984 -23.725000381469727,-13.595999717712402 -23.725000381469727,0 C-23.725000381469727,13.595999717712402 -13.102999687194824,24.617000579833984 0,24.617000579833984z"/></g><g opacity="1" transform="matrix(1,0,0,1,411.5539855957031,376.781005859375)"><path fill="rgb(246,192,161)" fill-opacity="1" d=" M50.94300079345703,-100.28099822998047 C50.94300079345703,-100.28099822998047 42.310001373291016,-57.48899841308594 42.310001373291016,-57.48899841308594 C42.310001373291016,-57.48899841308594 -10.293000221252441,-67.74800109863281 -10.293000221252441,-67.74800109863281 C-10.293000221252441,-67.74800109863281 -20.27400016784668,56.1609992980957 -20.27400016784668,56.1609992980957 C-20.27400016784668,56.1609992980957 -13.522000312805176,80.43199920654297 -14.28499984741211,92.72799682617188 C-15.045999526977539,105.0250015258789 -27.53700065612793,103.18900299072266 -27.53700065612793,103.18900299072266 C-27.53700065612793,103.18900299072266 -31.92799949645996,106.64199829101562 -36.39500045776367,104.66899871826172 C-40.862998962402344,102.69499969482422 -50.71900177001953,101.26300048828125 -48.01100158691406,90.69300079345703 C-45.301998138427734,80.1240005493164 -39.051998138427734,56.1349983215332 -39.051998138427734,56.1349983215332 C-39.051998138427734,56.1349983215332 -46.810001373291016,-39.56999969482422 -50.474998474121094,-84.78099822998047 C-50.94300079345703,-90.56999969482422 -48.856998443603516,-96.2750015258789 -44.763999938964844,-100.39600372314453 C-40.66999816894531,-104.51699829101562 -34.97999954223633,-106.64199829101562 -29.187999725341797,-106.21299743652344 C-29.187999725341797,-106.21299743652344 50.94300079345703,-100.28099822998047 50.94300079345703,-100.28099822998047z"/></g><g opacity="1" transform="matrix(1,0,0,1,438.70001220703125,487.1029968261719)"><path fill="rgb(255,254,255)" fill-opacity="1" d=" M32.10599899291992,80.36900329589844 C32.10599899291992,80.36900329589844 -64.56900024414062,78.99600219726562 -64.56900024414062,78.99600219726562 C-64.56900024414062,78.99600219726562 -63.779998779296875,-50.79100036621094 -63.779998779296875,-50.79100036621094 C-63.779998779296875,-50.79100036621094 -31.79199981689453,-75.39199829101562 -31.79199981689453,-75.39199829101562 C-31.79199981689453,-75.39199829101562 6.085000038146973,-80.36900329589844 6.085000038146973,-80.36900329589844 C6.085000038146973,-80.36900329589844 26.160999298095703,-60.10300064086914 26.160999298095703,-60.10300064086914 C26.160999298095703,-60.10300064086914 37.82899856567383,-52.09400177001953 37.82899856567383,-52.09400177001953 C38.0260009765625,-51.569000244140625 38.25600051879883,-51.05799865722656 38.51900100708008,-50.5629997253418 C64.56900024414062,-6.775000095367432 32.10599899291992,80.36900329589844 32.10599899291992,80.36900329589844z"/></g><g opacity="1" transform="matrix(1,0,0,1,424.2179870605469,325.614990234375)"><path fill="rgb(173,162,226)" fill-opacity="1" d=" M58.6609992980957,109.39099884033203 C58.6609992980957,109.39099884033203 33.16600036621094,109.57099914550781 33.16600036621094,109.57099914550781 C33.16600036621094,109.57099914550781 33.018001556396484,109.57099914550781 33.018001556396484,109.57099914550781 C21.608999252319336,109.56999969482422 12.281000137329102,100.47599792480469 11.98799991607666,89.07099914550781 C12.13700008392334,94.53500366210938 10.097999572753906,99.83200073242188 6.327000141143799,103.78700256347656 C2.555000066757202,107.74299621582031 -2.6410000324249268,110.02899932861328 -8.105999946594238,110.13800048828125 C-8.105999946594238,110.13800048828125 -55.56800079345703,111.11100006103516 -55.56800079345703,111.11100006103516 C-41.41999816894531,60.07600021362305 -55.50899887084961,17.2450008392334 -67.25499725341797,-6.669000148773193 C-73.99199676513672,-20.304000854492188 -72.63500213623047,-36.54800033569336 -63.729000091552734,-48.875999450683594 C-63.729000091552734,-48.875999450683594 -48.821998596191406,-69.51699829101562 -48.821998596191406,-69.51699829101562 C-48.821998596191406,-69.51699829101562 -44.46900177001953,-75.53500366210938 -44.46900177001953,-75.53500366210938 C-44.46900177001953,-75.53500366210938 -28.136999130249023,-98.1500015258789 -28.136999130249023,-98.1500015258789 C-28.136999130249023,-98.1500015258789 -18.763999938964844,-111.11100006103516 -18.763999938964844,-111.11100006103516 C-16.180999755859375,-110.87300109863281 -13.595000267028809,-110.572998046875 -11.005999565124512,-110.21099853515625 C-3.4489998817443848,-109.16799926757812 4.008999824523926,-107.50499725341797 11.291999816894531,-105.23799896240234 C18.104000091552734,-103.12300109863281 24.687000274658203,-100.3280029296875 30.94099998474121,-96.89600372314453 C37.51499938964844,-93.2969970703125 43.577999114990234,-88.83200073242188 48.96500015258789,-83.62100219726562 C48.96500015258789,-83.62100219726562 49.75,-82.85900115966797 49.75,-82.85900115966797 C55.257999420166016,-77.48300170898438 58.8489990234375,-70.4469985961914 59.972999572753906,-62.832000732421875 C64.07099914550781,-35.11899948120117 73.99199676513672,32.0099983215332 73.99199676513672,32.0099983215332 C73.99199676513672,32.0099983215332 49.45600128173828,54.779998779296875 49.45600128173828,54.779998779296875 C49.45600128173828,54.779998779296875 41.400001525878906,74.2509994506836 58.6609992980957,109.39099884033203z"/></g><g opacity="1" transform="matrix(1,0,0,1,452.7829895019531,329.4590148925781)"><path fill="rgb(142,138,185)" fill-opacity="1" d=" M1.4049999713897705,51.43000030517578 C1.4049999713897705,51.43000030517578 -13.164999961853027,-51.43000030517578 -13.164999961853027,-51.43000030517578 C-13.164999961853027,-51.43000030517578 13.164999961853027,44.305999755859375 13.164999961853027,44.305999755859375 C13.164999961853027,44.305999755859375 1.4049999713897705,51.43000030517578 1.4049999713897705,51.43000030517578z"/></g><g opacity="1" transform="matrix(1,0,0,1,394.90399169921875,213.61599731445312)"><path fill="rgb(246,192,161)" fill-opacity="1" d=" M-20.631999969482422,-1.7319999933242798 C-20.631999969482422,-1.7319999933242798 -2.996000051498413,18.7810001373291 -2.996000051498413,18.7810001373291 C-0.8270000219345093,21.304000854492188 2.3489999771118164,22.735000610351562 5.677000045776367,22.687000274658203 C9.003999710083008,22.639999389648438 12.137999534606934,21.118999481201172 14.232999801635742,18.534000396728516 C14.232999801635742,18.534000396728516 20.631999969482422,10.640999794006348 20.631999969482422,10.640999794006348 C20.631999969482422,10.640999794006348 -13.902000427246094,-22.735000610351562 -13.902000427246094,-22.735000610351562 C-13.902000427246094,-22.735000610351562 -20.631999969482422,-1.7319999933242798 -20.631999969482422,-1.7319999933242798z"/></g><g opacity="1" transform="matrix(1,0,0,1,375.3330078125,210.00399780273438)"><path fill="rgb(202,162,137)" fill-opacity="1" d=" M5.335999965667725,-11.734000205993652 C5.335999965667725,-11.734000205993652 8.767999649047852,13.3100004196167 8.767999649047852,13.3100004196167 C8.767999649047852,13.3100004196167 -8.767999649047852,-7.10099983215332 -8.767999649047852,-7.10099983215332 C-8.767999649047852,-7.10099983215332 8.583000183105469,-13.3100004196167 8.583000183105469,-13.3100004196167"/></g><g opacity="1" transform="matrix(1,0,0,1,350.6619873046875,196.052001953125)"><path fill="rgb(246,192,161)" fill-opacity="1" d=" M-40.861000061035156,-23.378000259399414 C-40.861000061035156,-23.378000259399414 -38.91600036621094,-12.411999702453613 -26.093000411987305,-4.432000160217285 C-21.490999221801758,-1.5729999542236328 -21.621999740600586,4.76800012588501 -21.301000595092773,9.954000473022461 C-21.170000076293945,11.663000106811523 -19.68000030517578,12.942999839782715 -17.97100067138672,12.817000389099121 C-15.46500015258789,12.644000053405762 -12.29800033569336,12.414999961853027 -12.29800033569336,12.414999961853027 C-12.29800033569336,12.414999961853027 3.7850000858306885,27.479999542236328 3.7850000858306885,27.479999542236328 C6.551000118255615,30.069000244140625 10.661999702453613,30.600000381469727 13.996000289916992,28.798999786376953 C20.33300018310547,25.288999557495117 29.204999923706055,17.256999969482422 33.250999450683594,0.6439999938011169 C40.861000061035156,-30.60099983215332 -5.02400016784668,-18.985000610351562 -40.861000061035156,-23.378000259399414z"/></g><g opacity="1" transform="matrix(1,0,0,1,417.4490051269531,234.625)"><path fill="rgb(246,192,161)" fill-opacity="1" d=" M37.70000076293945,-5.915999889373779 C33.90399932861328,-3.0179998874664307 29.90999984741211,-0.3889999985694885 25.746999740600586,1.9529999494552612 C3.9670000076293945,14.28600025177002 -21.277999877929688,19.231000900268555 -37.70000076293945,15.444999694824219 C-37.70000076293945,15.444999694824219 -21.368000030517578,-7.169000148773193 -21.368000030517578,-7.169000148773193 C-14.338000297546387,-12.119999885559082 -8.072999954223633,-18.549999237060547 -4.247000217437744,-19.231000900268555 C3.309000015258789,-18.187000274658203 10.767000198364258,-16.52400016784668 18.051000595092773,-14.258000373840332 C24.863000869750977,-12.142999649047852 31.445999145507812,-9.347999572753906 37.70000076293945,-5.915999889373779z"/></g><g opacity="1" transform="matrix(1,0,0,1,404.3179931640625,190.9739990234375)"><path fill="rgb(246,192,161)" fill-opacity="1" d=" M-3.5390000343322754,7.728000164031982 C-13.064000129699707,-0.9049999713897705 -16.41699981689453,-17.941999435424805 -16.41699981689453,-24.908000946044922 C-16.41699981689453,-30.2189998626709 -19.83799934387207,-34.52799987792969 -24.062999725341797,-34.52799987792969 C-28.288999557495117,-34.52799987792969 -31.709999084472656,-30.22100067138672 -31.709999084472656,-24.908000946044922 C-31.709999084472656,-21.333999633789062 -30.163999557495117,-18.2189998626709 -27.86400032043457,-16.56100082397461 C-27.86400032043457,-16.56100082397461 -44.505001068115234,-0.09399999678134918 -44.505001068115234,-0.09399999678134918 C-44.505001068115234,-0.09399999678134918 -3.385999917984009,25.113000869750977 -3.385999917984009,25.113000869750977 C-3.385999917984009,25.113000869750977 44.50400161743164,34.52799987792969 44.50400161743164,34.52799987792969 C44.50400161743164,34.52799987792969 9.312999725341797,19.368000030517578 -3.5390000343322754,7.728000164031982z"/></g><g opacity="1" transform="matrix(1,0,0,1,473.3429870605469,340.1090087890625)"><path fill="rgb(246,192,161)" fill-opacity="1" d=" M26.48200035095215,28.325000762939453 C22.006999969482422,-1.8839999437332153 14.715999603271484,-51.1619987487793 14.715999603271484,-51.1619987487793 C14.715999603271484,-51.1619987487793 -27.33099937438965,-39.44300079345703 -27.33099937438965,-39.44300079345703 C-27.33099937438965,-39.44300079345703 -18.858999252319336,-8.277999877929688 -18.858999252319336,-8.277999877929688 C-18.858999252319336,-8.277999877929688 -5.198999881744385,41.979000091552734 -5.198999881744385,41.979000091552734 C-3.743000030517578,47.3390007019043 1.1019999980926514,51.073001861572266 6.65500020980835,51.117000579833984 C12.463000297546387,51.1619987487793 18.000999450683594,48.66600036621094 21.812999725341797,44.28300094604492 C25.625999450683594,39.9010009765625 27.33099937438965,34.07099914550781 26.48200035095215,28.325000762939453z"/></g></g><g style="display: block;" transform="matrix(1,0,0,1,0,-54)" opacity="1"><g opacity="1" transform="matrix(1,0,0,1,266.45098876953125,637.6810302734375)"><path fill="rgb(206,220,209)" fill-opacity="1" d=" M-2.503000020980835,102.31199645996094 C-2.503000020980835,102.31199645996094 2.503000020980835,102.31199645996094 2.503000020980835,102.31199645996094 C2.503000020980835,102.31199645996094 2.503000020980835,-37.319000244140625 2.503000020980835,-37.319000244140625 C2.503000020980835,-37.319000244140625 -2.503000020980835,-37.319000244140625 -2.503000020980835,-37.319000244140625 C-2.503000020980835,-37.319000244140625 -2.503000020980835,102.31199645996094 -2.503000020980835,102.31199645996094z"/></g><g opacity="1" transform="matrix(1,0,0,1,267.1090087890625,567.56201171875)"><path fill="rgb(248,221,138)" fill-opacity="1" d=" M26.437999725341797,26.437999725341797 C41.040000915527344,11.836999893188477 41.040000915527344,-11.836000442504883 26.437999725341797,-26.437999725341797 C11.836000442504883,-41.040000915527344 -11.836999893188477,-41.040000915527344 -26.437999725341797,-26.437999725341797 C-41.040000915527344,-11.836000442504883 -41.040000915527344,11.836999893188477 -26.437999725341797,26.437999725341797 C-11.836999893188477,41.040000915527344 11.836000442504883,41.040000915527344 26.437999725341797,26.437999725341797z"/></g><g opacity="1" transform="matrix(1,0,0,1,247.13299560546875,619.5640258789062)"><path fill="rgb(24,199,90)" fill-opacity="1" d=" M16.81999969482422,16.81999969482422 C16.81999969482422,-1.7589999437332153 1.7589999437332153,-16.820999145507812 -16.81999969482422,-16.820999145507812 C-16.819000244140625,1.7569999694824219 -1.7580000162124634,16.816999435424805 16.81999969482422,16.816999435424805 C16.81999969482422,16.816999435424805 16.81999969482422,16.81999969482422 16.81999969482422,16.81999969482422z"/></g><g opacity="1" transform="matrix(1,0,0,1,285.7749938964844,630.06201171875)"><path fill="rgb(0,126,84)" fill-opacity="1" d=" M-16.81999969482422,16.81800079345703 C-16.81999969482422,7.896999835968018 -13.276000022888184,-0.6610000133514404 -6.966000080108643,-6.968999862670898 C-0.6579999923706055,-13.277000427246094 7.89900016784668,-16.81999969482422 16.81999969482422,-16.81999969482422 C16.81999969482422,1.7589999437332153 1.7589999437332153,16.81999969482422 -16.81999969482422,16.81999969482422 C-16.81999969482422,16.81999969482422 -16.81999969482422,16.81800079345703 -16.81999969482422,16.81800079345703z"/></g><g opacity="1" transform="matrix(1,0,0,1,267.0509948730469,568.375)"><path fill="rgb(248,248,223)" fill-opacity="1" d=" M3.1500000953674316,14.027999877929688 C3.1500000953674316,14.027999877929688 3.1500000953674316,17.118999481201172 3.1500000953674316,17.118999481201172 C3.1500000953674316,17.118999481201172 -2.578000068664551,17.118999481201172 -2.578000068664551,17.118999481201172 C-2.578000068664551,17.118999481201172 -2.578000068664551,14.086999893188477 -2.578000068664551,14.086999893188477 C-8.838000297546387,13.220999717712402 -11.211000442504883,9.154000282287598 -11.211000442504883,5.308000087738037 C-11.211000442504883,5.308000087738037 -4.96999979019165,5.308000087738037 -4.96999979019165,5.308000087738037 C-4.96999979019165,7.5279998779296875 -3.180000066757202,9.027999877929688 0.008999999612569809,9.027999877929688 C3.494999885559082,9.027999877929688 4.890999794006348,8.005000114440918 4.890999794006348,5.9770002365112305 C4.890999794006348,4.126999855041504 2.9820001125335693,3.359999895095825 -0.48100000619888306,2.572999954223633 C-4.989999771118164,1.4900000095367432 -10.539999961853027,-0.2840000092983246 -10.539999961853027,-5.951000213623047 C-10.539999961853027,-10.045999526977539 -7.9029998779296875,-13.038000106811523 -2.568000078201294,-13.706999778747559 C-2.568000078201294,-13.706999778747559 -2.568000078201294,-17.118000030517578 -2.568000078201294,-17.118000030517578 C-2.568000078201294,-17.118000030517578 3.1600000858306885,-17.118000030517578 3.1600000858306885,-17.118000030517578 C3.1600000858306885,-17.118000030517578 3.1600000858306885,-13.557000160217285 3.1600000858306885,-13.557000160217285 C7.921999931335449,-12.628999710083008 10.28600025177002,-9.63700008392334 10.28600025177002,-5.415999889373779 C10.28600025177002,-5.415999889373779 4.046000003814697,-5.415999889373779 4.046000003814697,-5.415999889373779 C4.046000003814697,-6.913000106811523 2.9820001125335693,-8.41100025177002 -0.2840000092983246,-8.41100025177002 C-3.611999988555908,-8.41100025177002 -4.302000045776367,-7.13100004196167 -4.302000045776367,-5.908999919891357 C-4.302000045776367,-4.198999881744385 -2.5290000438690186,-3.3519999980926514 1.684000015258789,-2.562999963760376 C7.057000160217285,-1.4800000190734863 11.211000442504883,0.7820000052452087 11.211000442504883,5.999000072479248 C11.201000213623047,10.465999603271484 8.050999641418457,13.220999717712402 3.1500000953674316,14.027999877929688z"/></g></g><g style="display: block;" transform="matrix(1,0,0,1,0,-192)" opacity="1"><g opacity="1" transform="matrix(1,0,0,1.220829963684082,167.5760040283203,627.718017578125)"><path fill="rgb(206,220,209)" fill-opacity="1" d=" M-3.122999906539917,262.614013671875 C-3.122999906539917,262.614013671875 3.122999906539917,262.614013671875 3.122999906539917,262.614013671875 C3.122999906539917,262.614013671875 3.122999906539917,-47.28200149536133 3.122999906539917,-47.28200149536133 C3.122999906539917,-47.28200149536133 -3.122999906539917,-47.28200149536133 -3.122999906539917,-47.28200149536133 C-3.122999906539917,-47.28200149536133 -3.122999906539917,262.614013671875 -3.122999906539917,262.614013671875z"/></g><g opacity="1" transform="matrix(1,0,0,1,168.39700317382812,539.4979858398438)"><path fill="rgb(220,164,55)" fill-opacity="1" d=" M32.999000549316406,32.999000549316406 C51.222999572753906,14.77400016784668 51.222999572753906,-14.77299976348877 32.999000549316406,-32.99700164794922 C14.77400016784668,-51.22200012207031 -14.77299976348877,-51.22200012207031 -32.99700164794922,-32.99700164794922 C-51.22200012207031,-14.77299976348877 -51.22200012207031,14.77400016784668 -32.99700164794922,32.999000549316406 C-14.77299976348877,51.222999572753906 14.77400016784668,51.222999572753906 32.999000549316406,32.999000549316406z"/></g><g opacity="1" transform="matrix(1,0,0,1,143.4669952392578,622.6510009765625)"><path fill="rgb(0,126,84)" fill-opacity="1" d=" M20.993000030517578,16.229999542236328 C20.993000030517578,6.357999801635742 17.070999145507812,-3.109999895095825 10.090999603271484,-10.090999603271484 C3.1089999675750732,-17.07200050354004 -6.357999801635742,-20.993999481201172 -16.229999542236328,-20.993999481201172 C-16.229999542236328,-20.993999481201172 -20.993000030517578,-20.993999481201172 -20.993000030517578,-20.993999481201172 C-20.993000030517578,-20.993999481201172 -20.993000030517578,-16.231000900268555 -20.993000030517578,-16.231000900268555 C-20.993000030517578,-6.359000205993652 -17.070999145507812,3.1080000400543213 -10.09000015258789,10.088000297546387 C-3.109999895095825,17.06999969482422 6.35699987411499,20.993000030517578 16.229999542236328,20.993999481201172 C16.229999542236328,20.993999481201172 20.993000030517578,20.993999481201172 20.993000030517578,20.993999481201172 C20.993000030517578,20.993999481201172 20.993000030517578,16.229999542236328 20.993000030517578,16.229999542236328z"/></g><g opacity="1" transform="matrix(1,0,0,1,191.69700622558594,606.97900390625)"><path fill="rgb(122,227,167)" fill-opacity="1" d=" M-20.993000030517578,16.233999252319336 C-20.993000030517578,-4.324999809265137 -4.327000141143799,-20.990999221801758 16.231000900268555,-20.990999221801758 C16.231000900268555,-20.990999221801758 20.992000579833984,-20.990999221801758 20.992000579833984,-20.990999221801758 C20.992000579833984,-20.990999221801758 20.992000579833984,-16.229999542236328 20.992000579833984,-16.229999542236328 C20.993000030517578,-6.35699987411499 17.070999145507812,3.111999988555908 10.08899974822998,10.092000007629395 C3.1080000400543213,17.070999145507812 -6.359000205993652,20.990999221801758 -16.229999542236328,20.989999771118164 C-16.229999542236328,20.989999771118164 -20.993000030517578,20.989999771118164 -20.993000030517578,20.989999771118164 C-20.993000030517578,20.989999771118164 -20.993000030517578,16.233999252319336 -20.993000030517578,16.233999252319336z"/></g><g opacity="1" transform="matrix(1,0,0,1,168.08099365234375,539.8309936523438)"><path fill="rgb(248,221,138)" fill-opacity="1" d=" M3.7190001010894775,16.4950008392334 C3.7190001010894775,16.4950008392334 3.7190001010894775,20.1299991607666 3.7190001010894775,20.1299991607666 C3.7190001010894775,20.1299991607666 -3.0179998874664307,20.1299991607666 -3.0179998874664307,20.1299991607666 C-3.0179998874664307,20.1299991607666 -3.0179998874664307,16.562000274658203 -3.0179998874664307,16.562000274658203 C-10.380999565124512,15.543999671936035 -13.185999870300293,10.755000114440918 -13.185999870300293,6.245999813079834 C-13.185999870300293,6.245999813079834 -5.8460001945495605,6.245999813079834 -5.8460001945495605,6.245999813079834 C-5.8460001945495605,8.859999656677246 -3.740999937057495,10.619000434875488 0.008999999612569809,10.619000434875488 C4.105000019073486,10.619000434875488 5.750999927520752,9.416000366210938 5.750999927520752,7.0329999923706055 C5.750999927520752,4.85699987411499 3.505000114440918,3.953000068664551 -0.5680000185966492,3.0260000228881836 C-5.868000030517578,1.753000020980835 -12.407999992370605,-0.33000001311302185 -12.407999992370605,-6.997000217437744 C-12.407999992370605,-11.812999725341797 -9.305000305175781,-15.331000328063965 -3.0350000858306885,-16.125 C-3.0350000858306885,-16.125 -3.0350000858306885,-20.1299991607666 -3.0350000858306885,-20.1299991607666 C-3.0350000858306885,-20.1299991607666 3.7009999752044678,-20.1299991607666 3.7009999752044678,-20.1299991607666 C3.7009999752044678,-20.1299991607666 3.7009999752044678,-15.937999725341797 3.7009999752044678,-15.937999725341797 C9.302000045776367,-14.850000381469727 12.08899974822998,-11.331000328063965 12.08899974822998,-6.375999927520752 C12.08899974822998,-6.375999927520752 4.758999824523926,-6.375999927520752 4.758999824523926,-6.375999927520752 C4.758999824523926,-8.135000228881836 3.509999990463257,-9.895999908447266 -0.3310000002384186,-9.895999908447266 C-4.243000030517578,-9.895999908447266 -5.054999828338623,-8.390999794006348 -5.054999828338623,-6.954999923706055 C-5.054999828338623,-4.940999984741211 -2.9709999561309814,-3.946000099182129 1.9819999933242798,-3.009000062942505 C8.300999641418457,-1.7359999418258667 13.185999870300293,0.9369999766349792 13.185999870300293,7.059000015258789 C13.185999870300293,12.307000160217285 9.484000205993652,15.545000076293945 3.7190001010894775,16.4950008392334z"/></g></g><g style="display: block;" transform="matrix(1,0.000009317264812125359,-0.000009317264812125359,1,0.003448486328125,-0.004486083984375)" opacity="1"><g opacity="1" transform="matrix(1,0,0,1,289.0360107421875,405.13299560546875)"><path fill="rgb(24,199,90)" fill-opacity="1" d=" M10.493000030517578,-26.86400032043457 C10.493000030517578,-26.86400032043457 -35.2760009765625,18.38599967956543 -35.2760009765625,18.38599967956543 C-36.3489990234375,19.43600082397461 -37.902000427246094,19.832000732421875 -39.34700012207031,19.427000045776367 C-40.79199981689453,19.02199935913086 -41.9119987487793,17.875 -42.28300094604492,16.42099952697754 C-42.654998779296875,14.967000007629395 -42.222999572753906,13.423999786376953 -41.14899826049805,12.375 C-41.14899826049805,12.375 7.197000026702881,-35.395999908447266 7.197000026702881,-35.395999908447266 C8.633999824523926,-36.801998138427734 10.866000175476074,-36.9900016784668 12.517000198364258,-35.845001220703125 C12.517000198364258,-35.845001220703125 25.250999450683594,-27.048999786376953 33.70399856567383,-14.074999809265137 C39.066001892089844,-5.84499979019165 42.654998779296875,4.007999897003174 40.87699890136719,14.359000205993652 C39.6879997253418,21.264999389648438 36.125999450683594,28.469999313354492 28.874000549316406,35.547000885009766 C27.801000595092773,36.595001220703125 26.25,36.9900016784668 24.805999755859375,36.58399963378906 C23.36199951171875,36.17900085449219 22.243999481201172,35.03300094604492 21.87299919128418,33.58000183105469 C21.503000259399414,32.12699890136719 21.934999465942383,30.586000442504883 23.009000778198242,29.538000106811523 C28.731000900268555,23.965999603271484 31.679000854492188,18.378999710083008 32.60300064086914,12.925000190734863 C34.01300048828125,4.738999843597412 30.913999557495117,-2.989000082015991 26.683000564575195,-9.49899959564209 C21.43199920654297,-17.54800033569336 14.333000183105469,-23.801000595092773 10.493000030517578,-26.86400032043457z"/></g><g opacity="1" transform="matrix(1,0,0,1,252.2830047607422,451.02899169921875)"><path fill="rgb(31,107,69)" fill-opacity="1" d=" M-20.16699981689453,17.492000579833984 C-20.16699981689453,17.492000579833984 -46.3650016784668,-11.104000091552734 -46.3650016784668,-11.104000091552734 C-46.3650016784668,-11.104000091552734 -5.353000164031982,-49.43299865722656 -5.353000164031982,-49.43299865722656 C6.6579999923706055,-60.65999984741211 25.4950008392334,-60.027000427246094 36.7239990234375,-48.016998291015625 C46.34400177001953,-37.71900177001953 57.893001556396484,-25.368000030517578 67.84300231933594,-14.718000411987305 C73.95600128173828,-8.177000045776367 77.22100067138672,0.5239999890327454 76.91799926757812,9.472000122070312 C76.61499786376953,18.42099952697754 72.77100372314453,26.881999969482422 66.22899627685547,32.994998931884766 C66.22899627685547,32.994998931884766 47.18899917602539,50.7859992980957 47.18899917602539,50.7859992980957 C36.62799835205078,60.65999984741211 20.08799934387207,60.198001861572266 10.093999862670898,49.750999450683594 C10.093999862670898,49.750999450683594 8.095999717712402,47.6609992980957 8.095999717712402,47.6609992980957 C3.0980000495910645,42.43600082397461 -3.4110000133514404,38.909000396728516 -10.517999649047852,37.57500076293945 C-10.517999649047852,37.57500076293945 -62.52399826049805,27.832000732421875 -62.52399826049805,27.832000732421875 C-62.52399826049805,27.832000732421875 -71.25599670410156,29.910999298095703 -71.25599670410156,29.910999298095703 C-72.60600280761719,30.235000610351562 -74.02999877929688,29.93199920654297 -75.13099670410156,29.08799934387207 C-76.23200225830078,28.243000030517578 -76.89299774169922,26.94499969482422 -76.92900085449219,25.55699920654297 C-77.0009994506836,22.844999313354492 -77.08699798583984,19.52400016784668 -77.1760025024414,16.4950008392334 C-77.22100067138672,14.791000366210938 -76.31900024414062,13.201000213623047 -74.83300018310547,12.364999771118164 C-73.34700012207031,11.529000282287598 -71.52100372314453,11.583999633789062 -70.08699798583984,12.506999969482422 C-70.08699798583984,12.506999969482422 -62.34700012207031,17.492000579833984 -62.34700012207031,17.492000579833984 C-62.34700012207031,17.492000579833984 -20.16699981689453,17.492000579833984 -20.16699981689453,17.492000579833984z"/></g></g><g style="display: block;" transform="matrix(1,0.000009317264812125359,-0.000009317264812125359,1,0.003448486328125,-0.004486083984375)" opacity="1"><g opacity="1" transform="matrix(1,0,0,1,394.1910095214844,376.62799072265625)"><path fill="rgb(246,192,161)" fill-opacity="1" d=" M105.60299682617188,-8.406999588012695 C103.8489990234375,-20.2450008392334 92.79299926757812,-28.395000457763672 80.96700286865234,-26.56599998474121 C80.96700286865234,-26.56599998474121 65.88200378417969,-24.233999252319336 65.88200378417969,-24.233999252319336 C65.88200378417969,-24.233999252319336 -56.979000091552734,-5.242000102996826 -56.979000091552734,-5.242000102996826 C-56.979000091552734,-5.242000102996826 -81.6780014038086,-10.210000038146973 -93.88800048828125,-8.553000450134277 C-106.0979995727539,-6.894999980926514 -103.3489990234375,5.416999816894531 -103.3489990234375,5.416999816894531 C-103.3489990234375,5.416999816894531 -106.48300170898438,10.04800033569336 -104.1709976196289,14.357999801635742 C-101.86000061035156,18.66699981689453 -99.73100280761719,28.395000457763672 -89.38500213623047,24.922000885009766 C-79.04100036621094,21.448999404907227 -55.573001861572266,13.470000267028809 -55.573001861572266,13.470000267028809 C-55.573001861572266,13.470000267028809 85.80599975585938,14.597999572753906 85.80599975585938,14.597999572753906 C91.61499786376953,14.642999649047852 97.15299987792969,12.145999908447266 100.96499633789062,7.763000011444092 C104.77799987792969,3.38100004196167 106.48200225830078,-2.4489998817443848 105.63300323486328,-8.194999694824219 C105.62300109863281,-8.265000343322754 105.61399841308594,-8.336000442504883 105.60299682617188,-8.406999588012695z"/></g></g><g style="display: block;" transform="matrix(1,0,0,1,0,-194)" opacity="1"><g opacity="1" transform="matrix(1,0,0,1,145.44500732421875,532.9429931640625)"><path fill="rgb(206,220,209)" fill-opacity="1" d=" M-3.122999906539917,361.0570068359375 C-3.122999906539917,361.0570068359375 3.122999906539917,361.0570068359375 3.122999906539917,361.0570068359375 C3.122999906539917,361.0570068359375 3.122999906539917,-142.11700439453125 3.122999906539917,-142.11700439453125 C3.122999906539917,-142.11700439453125 -3.122999906539917,-142.11700439453125 -3.122999906539917,-142.11700439453125 C-3.122999906539917,-142.11700439453125 -3.122999906539917,361.0570068359375 -3.122999906539917,361.0570068359375z"/></g><g opacity="1" transform="matrix(1,0,0,1,146.20899963378906,333.7900085449219)"><path fill="rgb(24,199,90)" fill-opacity="1" d=" M4.1020002365112305,58.94200134277344 C36.654998779296875,56.676998138427734 61.20800018310547,28.45199966430664 58.94300079345703,-4.1020002365112305 C56.678001403808594,-36.65599822998047 28.45199966430664,-61.20899963378906 -4.10099983215332,-58.944000244140625 C-36.654998779296875,-56.68000030517578 -61.20899963378906,-28.45400047302246 -58.94300079345703,4.099999904632568 C-56.67900085449219,36.65399932861328 -28.45199966430664,61.20800018310547 4.1020002365112305,58.94200134277344z"/></g><g opacity="1" transform="matrix(1,0,0,1,112.572998046875,457.8559875488281)"><path fill="rgb(24,199,90)" fill-opacity="1" d=" M29.702999114990234,22.9689998626709 C29.704999923706055,8.998000144958496 24.1560001373291,-4.401000022888184 14.276000022888184,-14.279000282287598 C4.3979997634887695,-24.156999588012695 -9,-29.704999923706055 -22.969999313354492,-29.70400047302246 C-22.969999313354492,-29.70400047302246 -29.70400047302246,-29.70400047302246 -29.70400047302246,-29.70400047302246 C-29.70400047302246,-29.70400047302246 -29.70400047302246,-22.9689998626709 -29.70400047302246,-22.9689998626709 C-29.704999923706055,-8.99899959564209 -24.1560001373291,4.401000022888184 -14.277000427246094,14.279000282287598 C-4.39900016784668,24.156999588012695 8.99899959564209,29.704999923706055 22.9689998626709,29.70400047302246 C22.9689998626709,29.70400047302246 29.704999923706055,29.70400047302246 29.704999923706055,29.70400047302246 C29.704999923706055,29.70400047302246 29.702999114990234,22.9689998626709 29.702999114990234,22.9689998626709z"/></g><g opacity="1" transform="matrix(-0.6108400225639343,0,0,0.6896499991416931,166.30499267578125,707.2269897460938)"><path fill="rgb(0,127,85)" fill-opacity="1" d=" M29.702999114990234,22.9689998626709 C29.704999923706055,8.998000144958496 24.1560001373291,-4.401000022888184 14.276000022888184,-14.279000282287598 C4.3979997634887695,-24.156999588012695 -9,-29.704999923706055 -22.969999313354492,-29.70400047302246 C-22.969999313354492,-29.70400047302246 -29.70400047302246,-29.70400047302246 -29.70400047302246,-29.70400047302246 C-29.70400047302246,-29.70400047302246 -29.70400047302246,-22.9689998626709 -29.70400047302246,-22.9689998626709 C-29.704999923706055,-8.99899959564209 -24.1560001373291,4.401000022888184 -14.277000427246094,14.279000282287598 C-4.39900016784668,24.156999588012695 8.99899959564209,29.704999923706055 22.9689998626709,29.70400047302246 C22.9689998626709,29.70400047302246 29.704999923706055,29.70400047302246 29.704999923706055,29.70400047302246 C29.704999923706055,29.70400047302246 29.702999114990234,22.9689998626709 29.702999114990234,22.9689998626709z"/></g><g opacity="1" transform="matrix(0.41409000754356384,0,0,0.45888999104499817,129.50900268554688,813.2269897460938)"><path fill="rgb(122,228,167)" fill-opacity="1" d=" M29.702999114990234,22.9689998626709 C29.704999923706055,8.998000144958496 24.1560001373291,-4.401000022888184 14.276000022888184,-14.279000282287598 C4.3979997634887695,-24.156999588012695 -9,-29.704999923706055 -22.969999313354492,-29.70400047302246 C-22.969999313354492,-29.70400047302246 -29.70400047302246,-29.70400047302246 -29.70400047302246,-29.70400047302246 C-29.70400047302246,-29.70400047302246 -29.70400047302246,-22.9689998626709 -29.70400047302246,-22.9689998626709 C-29.704999923706055,-8.99899959564209 -24.1560001373291,4.401000022888184 -14.277000427246094,14.279000282287598 C-4.39900016784668,24.156999588012695 8.99899959564209,29.704999923706055 22.9689998626709,29.70400047302246 C22.9689998626709,29.70400047302246 29.704999923706055,29.70400047302246 29.704999923706055,29.70400047302246 C29.704999923706055,29.70400047302246 29.702999114990234,22.9689998626709 29.702999114990234,22.9689998626709z"/></g><g opacity="1" transform="matrix(1,0,0,1,146.21499633789062,333.7929992675781)"><path fill="rgb(229,248,232)" fill-opacity="1" d=" M4.935999870300293,21.9060001373291 C4.935999870300293,21.9060001373291 4.935999870300293,26.732999801635742 4.935999870300293,26.732999801635742 C4.935999870300293,26.732999801635742 -4.013999938964844,26.732999801635742 -4.013999938964844,26.732999801635742 C-4.013999938964844,26.732999801635742 -4.013999938964844,21.996999740600586 -4.013999938964844,21.996999740600586 C-13.791999816894531,20.645000457763672 -17.510000228881836,14.279000282287598 -17.510000228881836,8.28499984741211 C-17.510000228881836,8.28499984741211 -7.765999794006348,8.28499984741211 -7.765999794006348,8.28499984741211 C-7.765999794006348,11.758000373840332 -4.966000080108643,14.095999717712402 0.014000000432133675,14.095999717712402 C5.458000183105469,14.095999717712402 7.640999794006348,12.494999885559082 7.640999794006348,9.32800006866455 C7.640999794006348,6.439000129699707 4.658999919891357,5.23799991607666 -0.7459999918937683,4.010000228881836 C-7.788000106811523,2.318000078201294 -16.461000442504883,-0.4490000009536743 -16.461000442504883,-9.3100004196167 C-16.461000442504883,-15.706000328063965 -12.338000297546387,-20.3799991607666 -4.00600004196167,-21.426000595092773 C-4.00600004196167,-21.426000595092773 -4.00600004196167,-26.733999252319336 -4.00600004196167,-26.733999252319336 C-4.00600004196167,-26.733999252319336 4.942999839782715,-26.733999252319336 4.942999839782715,-26.733999252319336 C4.942999839782715,-26.733999252319336 4.942999839782715,-21.16900062561035 4.942999839782715,-21.16900062561035 C12.378999710083008,-19.729000091552734 16.079999923706055,-15.053999900817871 16.079999923706055,-8.480999946594238 C16.079999923706055,-8.480999946594238 6.318999767303467,-8.480999946594238 6.318999767303467,-8.480999946594238 C6.318999767303467,-10.819999694824219 4.658999919891357,-13.156000137329102 -0.44699999690055847,-13.156000137329102 C-5.644000053405762,-13.156000137329102 -6.71999979019165,-11.156999588012695 -6.71999979019165,-9.25100040435791 C-6.71999979019165,-6.577000141143799 -3.9519999027252197,-5.251999855041504 2.628999948501587,-4.02400016784668 C11.015999794006348,-2.3320000171661377 17.510000228881836,1.2029999494552612 17.510000228881836,9.352999687194824 C17.510000228881836,16.340999603271484 12.593000411987305,20.645000457763672 4.935999870300293,21.9060001373291z"/></g></g><g style="display: none;" transform="matrix(0.9995173215866089,0.0029854008462280035,-0.0029854008462280035,0.9995173215866089,142.5581817626953,447.56597900390625)" opacity="0.0042296736303002545"><g opacity="1" transform="matrix(1,0,0,1,12.12600040435791,5.2230000495910645)"><path fill="rgb(127,196,235)" fill-opacity="1" d=" M-5.271999835968018,-0.19699999690055847 C-3.0920000076293945,1.0119999647140503 1.2669999599456787,3.427999973297119 3.446000099182129,4.63700008392334 C4.502999782562256,5.2230000495910645 5.828000068664551,4.867000102996826 6.453000068664551,3.8469998836517334 C7.078999996185303,2.8269999027252197 6.794000148773193,1.4859999418258667 5.791999816894531,0.8100000023841858 C3.7260000705718994,-0.5839999914169312 -0.4059999883174896,-3.371999979019165 -2.4719998836517334,-4.764999866485596 C-3.700000047683716,-5.593999862670898 -5.440000057220459,-5.281000137329102 -6.258999824523926,-3.944000005722046 C-7.078999996185303,-2.6070001125335693 -6.567999839782715,-0.9150000214576721 -5.271999835968018,-0.19699999690055847z"/></g><g opacity="1" transform="matrix(1,0,0,1,13.562999725341797,41.52199935913086)"><path fill="rgb(127,196,235)" fill-opacity="1" d=" M6.238999843597412,-4.375999927520752 C5.5269999504089355,-5.3379998207092285 4.176000118255615,-5.577000141143799 3.174999952316284,-4.901000022888184 C1.1089999675750732,-3.507999897003174 -3.0239999294281006,-0.7210000157356262 -5.090000152587891,0.6729999780654907 C-6.317999839782715,1.5010000467300415 -6.679999828338623,3.2309999465942383 -5.747000217437744,4.492000102996826 C-4.815000057220459,5.751999855041504 -3.053999900817871,5.913000106811523 -1.902999997138977,4.980000019073486 C0.03400000184774399,3.4119999408721924 3.9079999923706055,0.2750000059604645 5.843999862670898,-1.2929999828338623 C6.783999919891357,-2.052999973297119 6.949999809265137,-3.4140000343322754 6.238999843597412,-4.375999927520752z"/></g><g opacity="1" transform="matrix(1,0,0,1,7.47599983215332,23.886999130249023)"><path fill="rgb(127,196,235)" fill-opacity="1" d=" M7.423999786376953,-0.5920000076293945 C7.372000217437744,-1.7869999408721924 6.385000228881836,-2.740000009536743 5.177000045776367,-2.740000009536743 C2.684999942779541,-2.740000009536743 -2.299999952316284,-2.740999937057495 -4.790999889373779,-2.740999937057495 C-6.2729997634887695,-2.740999937057495 -7.539999961853027,-1.5089999437332153 -7.4720001220703125,0.05700000002980232 C-7.4039998054504395,1.6239999532699585 -6.033999919891357,2.740999937057495 -4.558000087738037,2.611999988555908 C-2.0759999752044678,2.3949999809265137 2.890000104904175,1.9609999656677246 5.373000144958496,1.74399995803833 C6.576000213623047,1.6380000114440918 7.47599983215332,0.6029999852180481 7.423999786376953,-0.5920000076293945z"/></g></g></g></svg>